<svg width="27" height="39" viewBox="0 0 27 39" fill="none" xmlns="http://www.w3.org/2000/svg" role="img" aria-labelledby="figma-logo-title">
<title id="figma-logo-title">Figma logo</title>
<path d="M13.4294 1.75166H7.59052C6.04196 1.75166 4.55682 2.36682 3.46182 3.46182C2.36682 4.55682 1.75166 6.04196 1.75166 7.59052C1.75166 9.13908 2.36682 10.6242 3.46182 11.7192C4.55682 12.8142 6.04196 13.4294 7.59052 13.4294M13.4294 1.75166V13.4294M13.4294 1.75166H19.2682C20.035 1.75166 20.7943 1.90269 21.5027 2.19612C22.2111 2.48955 22.8548 2.91963 23.3969 3.46182C23.9391 4.00401 24.3692 4.64768 24.6627 5.35608C24.9561 6.06449 25.1071 6.82375 25.1071 7.59052C25.1071 8.35729 24.9561 9.11655 24.6627 9.82496C24.3692 10.5334 23.9391 11.177 23.3969 11.7192C22.8548 12.2614 22.2111 12.6915 21.5027 12.9849C20.7943 13.2784 20.035 13.4294 19.2682 13.4294M13.4294 13.4294H7.59052M13.4294 13.4294H19.2682M13.4294 13.4294V25.1071M7.59052 13.4294C6.04196 13.4294 4.55682 14.0445 3.46182 15.1395C2.36682 16.2345 1.75166 17.7197 1.75166 19.2682C1.75166 20.8168 2.36682 22.3019 3.46182 23.3969C4.55682 24.4919 6.04196 25.1071 7.59052 25.1071M19.2682 13.4294C18.5015 13.4294 17.7422 13.5804 17.0338 13.8738C16.3254 14.1673 15.6817 14.5974 15.1395 15.1395C14.5974 15.6817 14.1673 16.3254 13.8738 17.0338C13.5804 17.7422 13.4294 18.5015 13.4294 19.2682C13.4294 20.035 13.5804 20.7943 13.8738 21.5027C14.1673 22.2111 14.5974 22.8548 15.1395 23.3969C15.6817 23.9391 16.3254 24.3692 17.0338 24.6627C17.7422 24.9561 18.5015 25.1071 19.2682 25.1071C20.035 25.1071 20.7943 24.9561 21.5027 24.6627C22.2111 24.3692 22.8548 23.9391 23.3969 23.3969C23.9391 22.8548 24.3692 22.2111 24.6627 21.5027C24.9561 20.7943 25.1071 20.035 25.1071 19.2682C25.1071 18.5015 24.9561 17.7422 24.6627 17.0338C24.3692 16.3254 23.9391 15.6817 23.3969 15.1395C22.8548 14.5974 22.2111 14.1673 21.5027 13.8738C20.7943 13.5804 20.035 13.4294 19.2682 13.4294ZM7.59052 25.1071C6.04196 25.1071 4.55682 25.7223 3.46182 26.8173C2.36682 27.9123 1.75166 29.3974 1.75166 30.946C1.75166 32.4945 2.36682 33.9797 3.46182 35.0747C4.55682 36.1697 6.04196 36.7848 7.59052 36.7848C9.13908 36.7848 10.6242 36.1697 11.7192 35.0747C12.8142 33.9797 13.4294 32.4945 13.4294 30.946V25.1071M7.59052 25.1071H13.4294" stroke="#1E1E1E" stroke-width="3.5" stroke-linecap="round" stroke-linejoin="round"/>
</svg>
