<svg width="264" height="85" viewBox="0 0 264 85" fill="none" xmlns="http://www.w3.org/2000/svg">
<path d="M13.4294 1.75166H7.59052C6.04196 1.75166 4.55682 2.36682 3.46182 3.46182C2.36682 4.55682 1.75166 6.04196 1.75166 7.59052C1.75166 9.13908 2.36682 10.6242 3.46182 11.7192C4.55682 12.8142 6.04196 13.4294 7.59052 13.4294M13.4294 1.75166V13.4294M13.4294 1.75166H19.2682C20.035 1.75166 20.7943 1.90269 21.5027 2.19612C22.2111 2.48955 22.8548 2.91963 23.3969 3.46182C23.9391 4.00401 24.3692 4.64768 24.6627 5.35608C24.9561 6.06449 25.1071 6.82375 25.1071 7.59052C25.1071 8.35729 24.9561 9.11655 24.6627 9.82496C24.3692 10.5334 23.9391 11.177 23.3969 11.7192C22.8548 12.2614 22.2111 12.6915 21.5027 12.9849C20.7943 13.2784 20.035 13.4294 19.2682 13.4294M13.4294 13.4294H7.59052M13.4294 13.4294H19.2682M13.4294 13.4294V25.1071M7.59052 13.4294C6.04196 13.4294 4.55682 14.0445 3.46182 15.1395C2.36682 16.2345 1.75166 17.7197 1.75166 19.2682C1.75166 20.8168 2.36682 22.3019 3.46182 23.3969C4.55682 24.4919 6.04196 25.1071 7.59052 25.1071M19.2682 13.4294C18.5015 13.4294 17.7422 13.5804 17.0338 13.8738C16.3254 14.1673 15.6817 14.5974 15.1395 15.1395C14.5974 15.6817 14.1673 16.3254 13.8738 17.0338C13.5804 17.7422 13.4294 18.5015 13.4294 19.2682C13.4294 20.035 13.5804 20.7943 13.8738 21.5027C14.1673 22.2111 14.5974 22.8548 15.1395 23.3969C15.6817 23.9391 16.3254 24.3692 17.0338 24.6627C17.7422 24.9561 18.5015 25.1071 19.2682 25.1071C20.035 25.1071 20.7943 24.9561 21.5027 24.6627C22.2111 24.3692 22.8548 23.9391 23.3969 23.3969C23.9391 22.8548 24.3692 22.2111 24.6627 21.5027C24.9561 20.7943 25.1071 20.035 25.1071 19.2682C25.1071 18.5015 24.9561 17.7422 24.6627 17.0338C24.3692 16.3254 23.9391 15.6817 23.3969 15.1395C22.8548 14.5974 22.2111 14.1673 21.5027 13.8738C20.7943 13.5804 20.035 13.4294 19.2682 13.4294ZM7.59052 25.1071C6.04196 25.1071 4.55682 25.7223 3.46182 26.8173C2.36682 27.9123 1.75166 29.3974 1.75166 30.946C1.75166 32.4945 2.36682 33.9797 3.46182 35.0747C4.55682 36.1697 6.04196 36.7848 7.59052 36.7848C9.13908 36.7848 10.6242 36.1697 11.7192 35.0747C12.8142 33.9797 13.4294 32.4945 13.4294 30.946V25.1071M7.59052 25.1071H13.4294" stroke="#1E1E1E" stroke-width="3.5" stroke-linecap="round" stroke-linejoin="round"/>
<path d="M16.0389 70.9807L24.9759 60.8076H22.8589L15.0956 69.639L8.89968 60.8076H1.75166L11.1231 74.1635L1.75166 84.8303H3.8687L12.0616 75.5021L18.6064 84.8303H25.7544M4.63279 62.371H7.88516L22.8573 83.3438H19.6041" fill="#1E1E1E"/>
<g clip-path="url(#clip0_1_1574)">
<path d="M53.781 62.9726C56.988 62.9726 57.3684 62.9846 58.6356 63.0427C61.8907 63.1908 63.4111 64.7353 63.5592 67.9664C63.6173 69.2326 63.6283 69.6129 63.6283 72.82C63.6283 76.028 63.6163 76.4074 63.5592 77.6736C63.4101 80.9016 61.8937 82.4491 58.6356 82.5972C57.3684 82.6553 56.99 82.6673 53.781 82.6673C50.5739 82.6673 50.1936 82.6553 48.9274 82.5972C45.6643 82.4481 44.1519 80.8966 44.0037 77.6726C43.9457 76.4064 43.9336 76.027 43.9336 72.819C43.9336 69.6119 43.9467 69.2326 44.0037 67.9654C44.1529 64.7353 45.6693 63.1898 48.9274 63.0417C50.1946 62.9846 50.5739 62.9726 53.781 62.9726ZM53.781 60.8076C50.5189 60.8076 50.1105 60.8216 48.8293 60.8797C44.4672 61.0798 42.0429 63.5001 41.8427 67.8663C41.7836 69.1485 41.7696 69.5569 41.7696 72.819C41.7696 76.081 41.7836 76.4904 41.8417 77.7716C42.0419 82.1338 44.4621 84.5581 48.8283 84.7583C50.1105 84.8163 50.5189 84.8303 53.781 84.8303C57.0431 84.8303 57.4524 84.8163 58.7337 84.7583C63.0918 84.5581 65.5221 82.1378 65.7193 77.7716C65.7783 76.4904 65.7923 76.081 65.7923 72.819C65.7923 69.5569 65.7783 69.1485 65.7203 67.8673C65.5241 63.5091 63.1008 61.0808 58.7347 60.8807C57.4524 60.8216 57.0431 60.8076 53.781 60.8076ZM53.781 66.6511C50.3747 66.6511 47.6131 69.4127 47.6131 72.819C47.6131 76.2252 50.3747 78.9878 53.781 78.9878C57.1872 78.9878 59.9488 76.2262 59.9488 72.819C59.9488 69.4127 57.1872 66.6511 53.781 66.6511ZM53.781 76.8227C51.5699 76.8227 49.7772 75.0311 49.7772 72.819C49.7772 70.6079 51.5699 68.8152 53.781 68.8152C55.9921 68.8152 57.7848 70.6079 57.7848 72.819C57.7848 75.0311 55.9921 76.8227 53.781 76.8227ZM60.193 64.9665C59.3963 64.9665 58.7507 65.6121 58.7507 66.4079C58.7507 67.2036 59.3963 67.8493 60.193 67.8493C60.9888 67.8493 61.6334 67.2036 61.6334 66.4079C61.6334 65.6121 60.9888 64.9665 60.193 64.9665Z" fill="#1E1E1E"/>
</g>
<g clip-path="url(#clip1_1_1574)">
<path d="M101.441 63.9946C97.8337 63.7484 89.799 63.7494 86.1966 63.9946C82.2959 64.2609 81.8365 66.6171 81.8075 72.819C81.8365 79.0098 82.2919 81.3761 86.1966 81.6433C89.8 81.8886 97.8337 81.8896 101.441 81.6433C105.342 81.3771 105.801 79.0208 105.83 72.819C105.801 66.6281 105.346 64.2619 101.441 63.9946ZM90.816 76.8228V68.8152L98.8236 72.812L90.816 76.8228Z" fill="#1E1E1E"/>
</g>
<g clip-path="url(#clip2_1_1574)">
<path d="M140.863 60.8076H126.85C124.087 60.8076 121.845 63.0487 121.845 65.8123V79.8256C121.845 82.5892 124.087 84.8303 126.85 84.8303H140.863C143.628 84.8303 145.868 82.5892 145.868 79.8256V65.8123C145.868 63.0487 143.628 60.8076 140.863 60.8076ZM129.853 79.8256H126.85V68.8152H129.853V79.8256ZM128.352 67.546C127.385 67.546 126.6 66.7552 126.6 65.7803C126.6 64.8054 127.385 64.0146 128.352 64.0146C129.318 64.0146 130.103 64.8054 130.103 65.7803C130.103 66.7552 129.319 67.546 128.352 67.546ZM141.864 79.8256H138.862V74.2163C138.862 70.8451 134.858 71.1003 134.858 74.2163V79.8256H131.855V68.8152H134.858V70.5818C136.255 67.9934 141.864 67.8022 141.864 73.0602V79.8256Z" fill="#1E1E1E"/>
</g>
<defs>
<clipPath id="clip0_1_1574">
<rect width="24" height="24" fill="white" transform="translate(41.7696 60.8076) scale(1.00095)"/>
</clipPath>
<clipPath id="clip1_1_1574">
<rect width="24" height="24" fill="white" transform="translate(81.8075 60.8076) scale(1.00095)"/>
</clipPath>
<clipPath id="clip2_1_1574">
<rect width="24" height="24" fill="white" transform="translate(121.845 60.8076) scale(1.00095)"/>
</clipPath>
</defs>
</svg>
