<svg width="24" height="24" viewBox="0 0 24 24" fill="none" xmlns="http://www.w3.org/2000/svg" role="img" aria-labelledby="instagram-icon-title">
<title id="instagram-icon-title">Instagram</title>
<path d="M12.0114 2.165C15.2184 2.165 15.5988 2.177 16.866 2.235C20.1211 2.383 21.6415 3.9275 21.7896 7.1586C21.8477 8.425 21.8587 8.8053 21.8587 12.0124C21.8587 15.2204 21.8467 15.5998 21.7896 16.866C21.6405 20.094 20.1241 21.6415 16.866 21.7896C15.5988 21.8477 15.2204 21.8597 12.0114 21.8597C8.80429 21.8597 8.42397 21.8477 7.15778 21.7896C3.89466 21.6405 2.38224 20.089 2.23413 16.865C2.17607 15.5988 2.16397 15.2194 2.16397 12.0114C2.16397 8.80429 2.17707 8.425 2.23413 7.1578C2.38324 3.9275 3.89967 2.382 7.15778 2.2341C8.42497 2.177 8.80429 2.165 12.0114 2.165ZM12.0114 0C8.74929 0 8.34084 0.014 7.05966 0.0721C2.69756 0.2722 0.273316 2.6925 0.0731 7.0587C0.014 8.3409 0 8.7493 0 12.0114C0 15.2734 0.014 15.6828 0.0721 16.964C0.27232 21.3262 2.69246 23.7505 7.05866 23.9507C8.34084 24.0087 8.74929 24.0227 12.0114 24.0227C15.2734 24.0227 15.6828 24.0087 16.9641 23.9507C21.3222 23.7505 23.7525 21.3302 23.9497 16.964C24.0087 15.6828 24.0227 15.2734 24.0227 12.0114C24.0227 8.7493 24.0087 8.3409 23.9507 7.0597C23.7545 2.7015 21.3312 0.2732 16.9651 0.0731C15.6828 0.014 15.2734 0 12.0114 0ZM12.0114 5.8435C8.60506 5.8435 5.84349 8.6051 5.84349 12.0114C5.84349 15.4176 8.60506 18.1802 12.0114 18.1802C15.4176 18.1802 18.1792 15.4186 18.1792 12.0114C18.1792 8.6051 15.4176 5.8435 12.0114 5.8435ZM12.0114 16.0151C9.80028 16.0151 8.00762 14.2235 8.00762 12.0114C8.00762 9.8003 9.80028 8.0076 12.0114 8.0076C14.2225 8.0076 16.0152 9.8003 16.0152 12.0114C16.0152 14.2235 14.2225 16.0151 12.0114 16.0151ZM18.4234 4.1589C17.6267 4.1589 16.9811 4.8045 16.9811 5.6003C16.9811 6.396 17.6267 7.0417 18.4234 7.0417C19.2192 7.0417 19.8638 6.396 19.8638 5.6003C19.8638 4.8045 19.2192 4.1589 18.4234 4.1589Z" fill="#1E1E1E"/>
</svg>
