<svg width="24" height="24" viewBox="0 0 24 24" fill="none" xmlns="http://www.w3.org/2000/svg" role="img" aria-labelledby="linkedin-icon-title">
<title id="linkedin-icon-title">LinkedIn</title>
<path d="M19.018 0H5.005C2.242 0 0 2.2411 0 5.0047V19.018C0 21.7816 2.242 24.0227 5.005 24.0227H19.018C21.783 24.0227 24.023 21.7816 24.023 19.018V5.0047C24.023 2.2411 21.783 0 19.018 0ZM8.008 19.018H5.005V8.0076H8.008V19.018ZM6.507 6.7384C5.54 6.7384 4.755 5.9476 4.755 4.9727C4.755 3.9978 5.54 3.207 6.507 3.207C7.473 3.207 8.258 3.9978 8.258 4.9727C8.258 5.9476 7.474 6.7384 6.507 6.7384ZM20.019 19.018H17.017V13.4087C17.017 10.0375 13.013 10.2927 13.013 13.4087V19.018H10.01V8.0076H13.013V9.7742C14.41 7.1858 20.019 6.9946 20.019 12.2526V19.018Z" fill="#1E1E1E"/>
</svg>
